<?xml version="1.0" encoding="iso-8859-1"?>
<!-- Uploaded to: SVG Repo, www.svgrepo.com, Generator: SVG Repo Mixer Tools -->
<svg fill="#000000" height="800px" width="800px" version="1.1" id="Layer_1" xmlns="http://www.w3.org/2000/svg" xmlns:xlink="http://www.w3.org/1999/xlink" 
	 viewBox="0 0 512 512" xml:space="preserve">
<g>
	<g>
		<path d="M437.019,74.98C388.667,26.628,324.381,0,256,0C187.62,0,123.333,26.628,74.98,74.98C26.628,123.333,0,187.62,0,256
			s26.628,132.667,74.98,181.02C123.333,485.372,187.62,512,256,512c68.381,0,132.667-26.628,181.019-74.98
			C485.372,388.667,512,324.38,512,256S485.372,123.333,437.019,74.98z M256,491.602c-129.911,0-235.602-105.69-235.602-235.602
			S126.089,20.398,256,20.398S491.602,126.089,491.602,256S385.911,491.602,256,491.602z"/>
	</g>
</g>
<g>
	<g>
		<path d="M256,48.514C141.591,48.514,48.514,141.591,48.514,256S141.591,463.486,256,463.486S463.487,370.409,463.487,256
			S370.409,48.514,256,48.514z M256,443.088c-103.161,0-187.088-83.927-187.088-187.088S152.839,68.912,256,68.912
			S443.089,152.839,443.089,256S359.161,443.088,256,443.088z"/>
	</g>
</g>
<g>
	<g>
		<path d="M403.517,244.456c-5.632,0-10.199,4.566-10.199,10.199c0,4.857-0.257,9.754-0.763,14.552
			c-0.592,5.602,3.471,10.622,9.072,11.214c0.365,0.038,0.725,0.057,1.083,0.057c5.152,0,9.577-3.891,10.13-9.129
			c0.581-5.508,0.876-11.124,0.876-16.694C413.716,249.022,409.149,244.456,403.517,244.456z"/>
	</g>
</g>
<g>
	<g>
		<path d="M346.558,245.801h-58.211c-3.322-10.512-11.635-18.826-22.148-22.148V95.367c0-5.633-4.567-10.199-10.199-10.199
			c-5.633,0-10.199,4.566-10.199,10.199v128.286c-13.733,4.34-23.717,17.198-23.717,32.347c0,18.702,15.215,33.917,33.916,33.917
			c15.149,0,28.007-9.985,32.347-23.717h58.211c5.632,0,10.199-4.566,10.199-10.199C356.757,250.367,352.19,245.801,346.558,245.801
			z M256,269.518c-7.455,0-13.518-6.064-13.518-13.518s6.063-13.518,13.518-13.518s13.518,6.064,13.518,13.518
			S263.455,269.518,256,269.518z"/>
	</g>
</g>
<g>
	<g>
		<path d="M396.577,300.608c-5.217-2.122-11.167,0.39-13.289,5.607c-21.1,51.899-70.935,85.434-126.964,85.434
			c-75.538,0-136.994-61.455-136.994-136.994c0-45.116,22.526-87.467,59.398-112.893l0.373,0.881
			c3.246,7.671,13.579,8.951,18.598,2.304l14.187-18.786c5.019-6.646,0.963-16.233-7.303-17.258l-23.362-2.897
			c-8.266-1.025-14.542,7.283-11.296,14.954l0.71,1.677c-20.48,13.322-37.714,31.3-50.112,52.406
			c-14.126,24.046-21.593,51.575-21.593,79.612c0,86.786,70.606,157.392,157.392,157.392c31.924,0,62.666-9.508,88.901-27.495
			c25.608-17.558,45.305-41.99,56.958-70.655C404.306,308.679,401.796,302.73,396.577,300.608z"/>
	</g>
</g>
</svg>